<svg width="116" height="122" viewBox="0 0 116 122" fill="none" xmlns="http://www.w3.org/2000/svg">
<path d="M91.4479 45.9972C89.7089 44.9101 88.8395 46.2198 87.97 47.3069C87.7526 47.5689 87.6077 47.8832 87.3759 48.132C85.3905 50.3323 82.8836 51.5635 79.6955 50.9086C76.5944 50.2669 74.6236 48.394 73.7397 45.6436C73.4353 44.7137 73.4643 43.6659 73.0296 42.8015C72.7832 42.3038 71.8847 41.793 71.3775 41.7537C70.3632 41.6882 69.6531 42.3562 69.2618 42.9456C68.8416 43.5742 68.8416 44.5172 68.885 45.303C69.2328 50.9086 74.4642 55.2438 81.2461 55.3354C85.8108 55.5843 89.3321 53.4495 91.8971 49.9525C92.8391 48.669 93.1579 47.0712 91.4479 45.9972Z" fill="#3D54B4"/>
<path d="M82.7096 38.9641C82.159 39.3832 81.4634 39.632 80.8403 39.9857C79.6375 40.6536 78.8115 41.518 79.5361 42.8277C80.333 44.2684 81.6228 44.4256 83.2313 43.8493C87.1295 42.4479 90.1146 38.414 90.0566 34.4849C89.9842 30.0187 86.3759 26.0241 81.3619 24.8585C78.2754 24.1381 76.0436 24.7799 75.9567 26.5611C75.8408 28.84 77.913 29.0103 79.7389 29.2329C82.3908 29.5472 84.1588 30.7915 84.7094 33.1621C85.2021 35.3755 84.7674 37.4317 82.7096 38.9641Z" fill="#3D54B4"/>
<path d="M71.7397 20.6019C73.5656 20.7852 74.4495 19.8946 74.58 18.323C74.5945 18.1527 74.58 17.9825 74.6379 17.8253C75.6814 14.8784 77.2318 13.5556 79.8113 13.4639C82.6226 13.3723 84.1731 14.8784 85.231 16.974C85.4484 17.4193 85.5354 17.917 85.6658 18.4016C86.0425 19.6851 86.8976 20.5102 88.4191 20.1828C89.9263 19.8553 90.2015 18.7159 90.1725 17.4586C90.0857 12.7043 85.6368 9.11567 79.8548 9.16806C74.8553 8.89302 70.6529 12.0756 69.595 17.1442C69.2182 19.0302 70.1312 20.4447 71.7397 20.6019Z" fill="#3D54B4"/>
<path d="M81.5214 65.2369C79.2897 65.918 80.0143 67.5682 80.2172 69.153C80.449 73.6977 78.5507 75.0729 73.6527 73.7894C73.3048 73.6977 73.015 73.4357 72.6817 73.331C71.3776 72.9381 70.0299 72.8726 69.4212 74.1561C69.03 74.9812 69.5806 76.5529 70.3777 77.116C72.7976 78.8449 77.7102 79.6962 81.1156 77.7054C84.6804 75.623 86.3904 71.6152 85.1877 68.21C84.3762 65.918 83.043 64.7654 81.5214 65.2369Z" fill="#3D54B4"/>
<path d="M103.954 40.7322C102.331 38.8593 100.142 38.1651 98.8238 38.964C97.3891 39.8285 97.6355 40.8631 99.8382 43.3647C101.794 45.5912 101.519 47.2152 98.8818 48.5773C98.2586 48.8917 97.5195 49.1536 96.853 49.2584C95.114 49.5334 94.9256 50.3062 94.9256 51.3539C94.9836 51.7861 95.3314 53.3185 97.7079 53.2006C102.621 52.9649 106.751 49.6644 105.881 44.5958C105.794 43.7052 105.142 42.0943 103.954 40.7322Z" fill="#3D54B4"/>
<path d="M43.0616 117.534H53.6692C53.6547 117.704 53.6112 117.874 53.6112 118.045C53.6112 120.232 55.8284 122 58.5527 122C61.277 122 63.4942 120.232 63.4942 118.045C63.4942 117.874 63.4508 117.704 63.4362 117.547H74.0439V113.867H43.0616V117.534Z" fill="#3D54B4"/>
<path d="M81.304 106.283H35.8015V109.964H81.304V106.283Z" fill="#3D54B4"/>
<path d="M52.8286 99.1978V1.55859C52.8286 1.55859 34.729 1.33594 23.078 10.7004C23.078 10.7004 11.4271 18.4801 11.3256 33.2668C11.3256 33.2668 11.601 38.9117 11.601 40.8369C11.601 40.8369 11.456 43.4695 10.5866 44.9363C10.5866 44.9363 10.775 45.1852 1.57307 54.7592C1.57307 54.7592 -3.2815 58.8193 4.06555 60.6922C4.06555 60.6922 8.55783 60.9803 7.1232 64.1629C7.1232 64.1629 3.70327 66.8348 4.44233 68.3802C4.44233 68.3802 5.83349 69.2577 5.03647 70.8425C5.03647 70.8425 4.25395 71.6414 6.1523 73.0166C6.1523 73.0166 8.51436 75.23 6.97829 78.74C6.97829 78.74 2.63092 86.5983 14.6151 87.4758C14.6151 87.4758 31.7293 84.4635 36.6274 102.184H81.3183V98.962L52.8286 99.1978Z" fill="#3D54B4"/>
<path d="M76.6958 99.6562V86.0482H81.3185V100.822L76.6958 99.6562Z" fill="#3D54B4"/>
<path d="M63.6102 99.5907V16.1096V14.551C63.6102 14.551 69.4647 3.06478 82.9705 4.85909C82.9705 4.85909 95.7372 7.70117 95.7372 19.9601C95.7372 19.9601 95.3605 24.4786 92.2884 28.1589C92.2884 28.1589 90.8682 31.1713 94.9982 31.276C94.9982 31.276 96.4763 31.3546 97.4327 29.2984C97.4327 29.2984 99.7078 26.9802 100.824 20.6543C100.824 20.6543 108.939 25.474 105.91 32.7822C105.91 32.7822 104.736 32.2845 102.708 31.2236C102.708 31.2236 97.0125 31.6035 101.78 35.7422C101.78 35.7422 110.605 37.8639 109.301 48.669C109.301 48.669 108.258 56.0296 97.766 57.4703C97.766 57.4703 95.6648 57.693 96.3458 60.1421C96.3458 60.1421 97.0849 62.1067 99.4325 61.7531C99.4325 61.7531 100.548 61.4125 102.142 61.3602C102.142 61.3602 103.925 67.2146 95.2301 70.502C95.2301 70.502 95.1721 62.6437 89.3756 59.0813C89.3756 59.0813 87.8685 58.0728 86.202 59.3825C86.202 59.3825 84.666 60.2076 86.5208 62.827C86.5208 62.827 94.375 69.6114 87.8395 78.7532C87.8395 78.7532 81.9126 86.3888 71.0008 83.2062C71.0008 83.2062 68.3343 82.5513 67.9575 84.9743C67.9575 84.9743 67.5808 87.3318 72.4498 88.4057C72.4498 88.4057 85.5499 90.3965 92.7666 80.8094C92.7666 80.8094 94.9257 77.3518 95.4765 74.6799C95.4765 74.6799 102.2 75.0205 106.823 66.7693C106.823 66.7693 108.649 63.5081 107.2 59.1336C107.2 59.1336 116.822 55.2307 114.779 43.9803C114.779 43.9803 114.097 38.9641 110.707 35.6243C110.707 35.6243 115.214 26.8754 106.765 19.2922C106.765 19.2922 104.736 17.0656 100.041 15.5071C100.041 15.5071 99.7223 3.15646 82.7821 0.235797C82.7821 0.235797 62.7987 -3.27423 58.3643 16.7906V99.6038H63.6102V99.5907Z" fill="#3D54B4"/>
<path d="M71.1745 34.8515C71.2614 35.3361 71.189 35.8731 71.218 36.3708C71.247 37.3531 71.5512 38.152 72.6961 38.0734C73.9568 37.9817 74.5219 37.1959 74.6814 35.9779C75.0872 33.031 73.3772 29.8746 70.6819 28.7351C67.6096 27.4385 63.61 28.5911 61.0597 31.4986C59.4946 33.293 59.1468 34.9301 60.3206 35.5326C61.8422 36.2922 62.6827 34.9956 63.4652 33.8692C64.6099 32.2452 66.0736 31.4594 67.885 31.813C69.595 32.1404 70.8557 33.0441 71.1745 34.8515Z" fill="#3D54B4"/>
<path d="M63.8129 61.8709C63.4797 61.4387 63.2623 60.9018 62.9869 60.4172C62.4508 59.4873 61.7407 58.8455 60.6828 59.4087C59.5091 60.0242 59.3787 61.0196 59.8568 62.277C61.0017 65.2893 64.2766 67.5944 67.4647 67.5551C71.0875 67.5027 74.3336 64.6999 75.2755 60.8101C75.8552 58.4133 75.3335 56.6976 73.8844 56.619C72.0294 56.5273 71.899 58.1383 71.7106 59.5528C71.4498 61.609 70.4499 62.9842 68.5226 63.4033C66.7402 63.8093 65.0591 63.4688 63.8129 61.8709Z" fill="#3D54B4"/>
<path d="M103.461 32.8215L102.707 31.2105C102.707 31.2105 100.679 30.739 99.9541 32.5464C99.9541 32.5464 98.7948 34.5634 101.78 35.716L103.78 35.3885L103.461 32.8215Z" fill="#3D54B4"/>
<path d="M73.6815 5.14719C73.6815 5.14719 64.2043 9.52164 63.3203 20.628L61.9001 19.4886L61.2336 17.1966L61.4364 13.9092L63.3348 8.89298L70.3195 3.95535L73.8555 5.22578" fill="#3D54B4"/>
</svg>
