<svg width="307" height="122" viewBox="0 0 307 122" fill="none" xmlns="http://www.w3.org/2000/svg">
<path d="M82.3299 45.9973C80.7643 44.9102 79.9816 46.2199 79.1988 47.307C79.0031 47.569 78.8726 47.8833 78.6639 48.1321C76.8765 50.3324 74.6195 51.5636 71.7493 50.9087C68.9574 50.267 67.1831 48.3941 66.3873 45.6437C66.1133 44.7138 66.1394 43.666 65.748 42.8016C65.5262 42.3039 64.7173 41.7931 64.2607 41.7538C63.3475 41.6883 62.7082 42.3563 62.3559 42.9457C61.9776 43.5743 61.9776 44.5173 62.0167 45.3031C62.3298 50.9087 67.0396 55.2439 73.1453 55.3355C77.2549 55.5844 80.4251 53.4496 82.7343 49.9526C83.5824 48.6691 83.8694 47.0713 82.3299 45.9973Z" fill="#3D54B4"/>
<path d="M74.4629 38.9642C73.9672 39.3833 73.341 39.6321 72.78 39.9858C71.6971 40.6537 70.9535 41.5181 71.6058 42.8278C72.3233 44.2685 73.4845 44.4257 74.9326 43.8494C78.4421 42.448 81.1296 38.4141 81.0774 34.485C81.0122 30.0188 77.7637 26.0242 73.2496 24.8586C70.4708 24.1382 68.4616 24.78 68.3833 26.5612C68.279 28.8401 70.1446 29.0104 71.7884 29.233C74.1759 29.5473 75.7676 30.7916 76.2633 33.1622C76.7069 35.3756 76.3155 37.4318 74.4629 38.9642Z" fill="#3D54B4"/>
<path d="M64.5868 20.602C66.2306 20.7853 67.0264 19.8947 67.1439 18.3231C67.1569 18.1528 67.1439 17.9826 67.196 17.8254C68.1354 14.8785 69.5313 13.5557 71.8536 13.464C74.3846 13.3724 75.7805 14.8785 76.7329 16.9741C76.9286 17.4194 77.0069 17.9171 77.1243 18.4017C77.4635 19.6852 78.2333 20.5103 79.6031 20.1829C80.96 19.8554 81.2078 18.716 81.1817 17.4587C81.1035 12.7044 77.0982 9.11579 71.8927 9.16818C67.3917 8.89314 63.6083 12.0757 62.6559 17.1443C62.3167 19.0303 63.1386 20.4448 64.5868 20.602Z" fill="#3D54B4"/>
<path d="M73.3931 65.237C71.384 65.9181 72.0363 67.5683 72.219 69.1531C72.4277 73.6978 70.7186 75.073 66.309 73.7895C65.9958 73.6978 65.7349 73.4358 65.4348 73.3311C64.2607 72.9382 63.0474 72.8727 62.4994 74.1562C62.1472 74.9813 62.6429 76.553 63.3605 77.1161C65.5392 78.845 69.9619 79.6963 73.0278 77.7055C76.2372 75.6231 77.7767 71.6153 76.6939 68.2101C75.9633 65.9181 74.763 64.7655 73.3931 65.237Z" fill="#3D54B4"/>
<path d="M93.5888 40.7323C92.1276 38.8594 90.1576 38.1652 88.9704 38.9641C87.6788 39.8286 87.9006 40.8632 89.8837 43.3648C91.6449 45.5913 91.397 47.2153 89.0226 48.5774C88.4616 48.8918 87.7962 49.1537 87.1961 49.2585C85.6305 49.5335 85.4609 50.3063 85.4609 51.354C85.5131 51.7862 85.8262 53.3186 87.9658 53.2007C92.3886 52.965 96.1068 49.6645 95.324 44.5959C95.2457 43.7053 94.6586 42.0944 93.5888 40.7323Z" fill="#3D54B4"/>
<path d="M38.7681 117.534H48.318C48.305 117.704 48.2658 117.874 48.2658 118.045C48.2658 120.232 50.2619 122 52.7146 122C55.1673 122 57.1634 120.232 57.1634 118.045C57.1634 117.874 57.1243 117.704 57.1112 117.547H66.6612V113.867H38.7681V117.534Z" fill="#3D54B4"/>
<path d="M73.1974 106.283H32.2318V109.964H73.1974V106.283Z" fill="#3D54B4"/>
<path d="M47.5612 99.1979V1.55872C47.5612 1.55872 31.2663 1.33607 20.777 10.7005C20.777 10.7005 10.2877 18.4802 10.1964 33.2669C10.1964 33.2669 10.4443 38.9118 10.4443 40.837C10.4443 40.837 10.3138 43.4696 9.53105 44.9364C9.53105 44.9364 9.70066 45.1853 1.41622 54.7593C1.41622 54.7593 -2.95431 58.8194 3.66019 60.6923C3.66019 60.6923 7.70456 60.9804 6.41297 64.163C6.41297 64.163 3.33403 66.8349 3.9994 68.3803C3.9994 68.3803 5.25185 69.2578 4.5343 70.8426C4.5343 70.8426 3.8298 71.6415 5.53887 73.0167C5.53887 73.0167 7.66542 75.2301 6.28251 78.7401C6.28251 78.7401 2.3686 86.5984 13.1579 87.4759C13.1579 87.4759 28.5657 84.4636 32.9754 102.184H73.2103V98.9621L47.5612 99.1979Z" fill="#3D54B4"/>
<path d="M69.0487 99.6563V86.0483H73.2105V100.822L69.0487 99.6563Z" fill="#3D54B4"/>
<path d="M57.2678 99.5908V16.1097V14.5511C57.2678 14.5511 62.5386 3.0649 74.6978 4.85921C74.6978 4.85921 86.1916 7.70129 86.1916 19.9602C86.1916 19.9602 85.8524 24.4787 83.0866 28.159C83.0866 28.159 81.808 31.1714 85.5262 31.2761C85.5262 31.2761 86.857 31.3547 87.718 29.2985C87.718 29.2985 89.7663 26.9803 90.7709 20.6544C90.7709 20.6544 98.0768 25.4741 95.3501 32.7823C95.3501 32.7823 94.2934 32.2846 92.4669 31.2237C92.4669 31.2237 87.3397 31.6036 91.6319 35.7423C91.6319 35.7423 99.5772 37.864 98.403 48.6691C98.403 48.6691 97.4637 56.0297 88.0181 57.4704C88.0181 57.4704 86.1264 57.6931 86.7395 60.1422C86.7395 60.1422 87.4049 62.1068 89.5184 61.7532C89.5184 61.7532 90.523 61.4126 91.9581 61.3603C91.9581 61.3603 93.5628 67.2147 85.735 70.5021C85.735 70.5021 85.6828 62.6438 80.4642 59.0814C80.4642 59.0814 79.1074 58.0729 77.6071 59.3826C77.6071 59.3826 76.2242 60.2077 77.8941 62.8271C77.8941 62.8271 84.9652 69.6115 79.0813 78.7533C79.0813 78.7533 73.7454 86.3889 63.9215 83.2063C63.9215 83.2063 61.5209 82.5514 61.1817 84.9744C61.1817 84.9744 60.8425 87.3319 65.2261 88.4058C65.2261 88.4058 77.02 90.3966 83.5171 80.8095C83.5171 80.8095 85.461 77.3519 85.9568 74.68C85.9568 74.68 92.0103 75.0206 96.1721 66.7694C96.1721 66.7694 97.8159 63.5082 96.5113 59.1337C96.5113 59.1337 105.174 55.2308 103.335 43.9804C103.335 43.9804 102.721 38.9642 99.6685 35.6244C99.6685 35.6244 103.726 26.8755 96.1199 19.2923C96.1199 19.2923 94.2934 17.0657 90.0664 15.5072C90.0664 15.5072 89.7793 3.15658 74.5282 0.23592C74.5282 0.23592 56.5372 -3.27411 52.545 16.7907V99.6039H57.2678V99.5908Z" fill="#3D54B4"/>
<path d="M64.0779 34.8516C64.1562 35.3362 64.091 35.8732 64.1171 36.3709C64.1432 37.3532 64.4171 38.1521 65.4478 38.0735C66.5828 37.9818 67.0916 37.196 67.2352 35.978C67.6005 33.0311 66.061 29.8747 63.6344 28.7352C60.8685 27.4386 57.2677 28.5912 54.9716 31.4987C53.5626 33.2931 53.2495 34.9302 54.3062 35.5327C55.6761 36.2923 56.4328 34.9957 57.1373 33.8693C58.1679 32.2453 59.4856 31.4595 61.1164 31.8131C62.6559 32.1405 63.7909 33.0442 64.0779 34.8516Z" fill="#3D54B4"/>
<path d="M57.4503 61.871C57.1503 61.4388 56.9546 60.9019 56.7067 60.4173C56.224 59.4874 55.5847 58.8456 54.6323 59.4088C53.5756 60.0243 53.4582 61.0197 53.8887 62.2771C54.9194 65.2894 57.8678 67.5945 60.738 67.5552C63.9996 67.5028 66.922 64.7 67.77 60.8102C68.2919 58.4134 67.8222 56.6977 66.5176 56.6191C64.8476 56.5274 64.7302 58.1384 64.5606 59.5529C64.3258 61.6091 63.4256 62.9843 61.6904 63.4034C60.0857 63.8094 58.5723 63.4689 57.4503 61.871Z" fill="#3D54B4"/>
<path d="M93.1453 32.8216L92.4668 31.2106C92.4668 31.2106 90.6404 30.7391 89.988 32.5465C89.988 32.5465 88.9443 34.5635 91.6319 35.7161L93.4323 35.3886L93.1453 32.8216Z" fill="#3D54B4"/>
<path d="M66.335 5.14731C66.335 5.14731 57.8027 9.52176 57.0069 20.6281L55.7283 19.4887L55.1282 17.1967L55.3108 13.9093L57.0199 8.8931L63.3082 3.95547L66.4916 5.2259" fill="#3D54B4"/>
<path d="M155.762 39.3004C155.762 36.8275 154.718 35.5086 152.08 35.5086H140.98C138.726 35.5086 137.463 36.7725 137.463 38.9707C137.463 41.7184 139.606 42.4328 141.529 42.4328H147.409C146.97 47.2687 142.793 50.511 138.012 50.511C130.648 50.511 126.801 45.1255 126.801 37.3221C126.801 27.3205 131.692 23.2539 137.902 23.2539C146.695 23.2539 145.046 29.4637 149.497 29.4637C151.421 29.4637 153.729 28.6394 153.729 25.507C153.729 21.99 148.398 16 138.397 16C126.142 16 117.789 23.3638 117.789 36.7176C117.789 47.8182 123.12 57.4352 137.078 57.4352C142.683 57.4352 146.255 55.3469 148.838 52.1046C149.387 55.6217 150.102 57.2153 152.685 57.2153C154.498 57.2153 155.762 55.8415 155.762 54.1929V39.3004Z" fill="#3D54B4"/>
<path d="M189.527 35.2888C189.527 29.5186 184.197 27.0457 176.503 27.0457C168.26 27.0457 163.754 31.1123 163.754 34.2996C163.754 35.9482 165.128 37.377 167.161 37.377C170.349 37.377 170.513 32.9807 176.448 32.9807C179.141 32.9807 181.504 33.9699 181.504 36.2779C181.504 38.586 179.965 39.0256 178.042 39.2455L173.151 39.795C166.996 40.5094 161.941 42.3778 161.941 49.0272C161.941 54.083 166.447 57.2153 171.008 57.2153C175.239 57.2153 178.866 56.0064 181.999 52.5443C182.109 55.0172 183.263 57.2153 186.725 57.2153C188.648 57.2153 190.352 55.9514 190.352 54.1379C190.352 52.874 189.527 52.1046 189.527 48.7525V35.2888ZM181.504 46.1147C181.504 49.0822 178.811 51.9398 174.415 51.9398C171.667 51.9398 169.964 50.456 169.964 48.6425C169.964 46.2246 171.777 45.1805 175.129 44.6859L178.042 44.2462C178.976 44.0814 180.625 43.8066 181.504 42.9823V46.1147Z" fill="#3D54B4"/>
<path d="M196.47 53.2037C196.47 55.3469 197.349 57.2153 200.481 57.2153C203.614 57.2153 204.493 55.3469 204.493 53.2037V39.8499C204.493 36.1131 207.241 33.6402 210.318 33.6402C213.45 33.6402 214.714 35.9482 214.714 38.8058V53.2037C214.714 55.3469 215.594 57.2153 218.726 57.2153C221.858 57.2153 222.737 55.3469 222.737 53.2037V39.8499C222.737 36.1131 225.485 33.6402 228.563 33.6402C231.695 33.6402 232.959 35.9482 232.959 38.8058V53.2037C232.959 55.3469 233.838 57.2153 236.971 57.2153C240.103 57.2153 240.982 55.3469 240.982 53.2037V36.7725C240.982 29.5736 236.531 27.0457 230.981 27.0457C226.639 27.0457 223.782 28.9691 221.529 32.1015C220.045 28.3097 216.583 27.0457 213.835 27.0457C209.768 27.0457 206.251 28.9141 204.163 32.1015H204.053V31.0573C204.053 28.6394 202.624 27.0457 200.261 27.0457C197.898 27.0457 196.47 28.6394 196.47 31.0573V53.2037Z" fill="#3D54B4"/>
<path d="M247.784 53.2037C247.784 55.3469 248.664 57.2153 251.796 57.2153C254.928 57.2153 255.808 55.3469 255.808 53.2037V31.0573C255.808 28.9141 254.928 27.0457 251.796 27.0457C248.664 27.0457 247.784 28.9141 247.784 31.0573V53.2037ZM247.62 20.1765C247.62 22.4845 249.488 24.353 251.796 24.353C254.104 24.353 255.973 22.4845 255.973 20.1765C255.973 17.8684 254.104 16 251.796 16C249.488 16 247.62 17.8684 247.62 20.1765Z" fill="#3D54B4"/>
<path d="M265.167 53.2037C265.167 55.8415 266.761 57.2153 269.179 57.2153C271.597 57.2153 273.191 55.8415 273.191 53.2037V33.0357H275.664C278.027 33.0357 279.291 32.3213 279.291 30.3979C279.291 28.4745 278.027 27.7601 275.664 27.7601H273.191V24.298C273.191 23.1989 273.795 22.4296 274.949 22.4296C275.554 22.4296 276.103 22.5945 276.708 22.5945C278.137 22.5945 279.291 21.3305 279.291 19.8468C279.291 17.154 276.928 16 274.015 16C269.344 16 265.167 18.6927 265.167 23.7485V27.7601H263.354C261.101 27.7601 260.167 28.6394 260.167 30.3979C260.167 32.1564 261.101 33.0357 263.354 33.0357H265.167V53.2037Z" fill="#3D54B4"/>
<path d="M288.474 30.0682C287.98 28.2547 286.496 27.0457 284.353 27.0457C282.21 27.0457 280.451 28.6943 280.451 30.8925C280.451 31.8267 280.781 32.706 281.44 34.6293L289.793 58.4243C289.189 60.8972 288.035 60.9522 286.99 60.9522H286.166C284.023 60.9522 282.484 62.0513 282.484 64.1945C282.484 66.1179 283.968 67.8764 287.54 67.8764C292.596 67.8764 294.794 65.0188 296.717 59.5234L306.005 33.2005C306.389 32.1564 306.609 31.3321 306.609 30.6727C306.609 29.6835 305.675 27.0457 302.487 27.0457C300.289 27.0457 299.19 28.5844 298.641 30.6177L293.75 48.8074H293.64L288.474 30.0682Z" fill="#3D54B4"/>
<path d="M176.546 90.9478C176.546 101.285 182.915 105.931 192.886 105.931C202.858 105.931 209.227 101.285 209.227 90.9478V71.0572C209.227 68.4991 207.556 66.7763 204.946 66.7763C202.335 66.7763 200.665 68.4991 200.665 71.0572V91.6264C200.665 96.7426 197.794 99.0397 192.886 99.0397C187.979 99.0397 185.107 96.7426 185.107 91.6264V71.0572C185.107 68.4991 183.437 66.7763 180.827 66.7763C178.216 66.7763 176.546 68.4991 176.546 71.0572V90.9478Z" fill="#3D54B4"/>
<path d="M229.708 81.6551C226.993 81.0286 223.861 80.1933 223.861 77.583C223.861 74.9727 226.054 73.1455 230.021 73.1455C238.009 73.1455 237.278 78.7315 241.246 78.7315C243.334 78.7315 245.161 77.4786 245.161 75.3381C245.161 70.3263 237.278 66.5675 230.596 66.5675C223.339 66.5675 215.613 69.6999 215.613 78.0528C215.613 82.0727 217.022 86.3536 224.801 88.3375L234.459 90.7911C237.382 91.522 238.113 93.1926 238.113 94.7066C238.113 97.2125 235.66 99.6662 231.222 99.6662C222.556 99.6662 223.757 92.8794 219.11 92.8794C217.022 92.8794 215.508 94.3412 215.508 96.4294C215.508 100.501 220.363 105.931 231.222 105.931C241.559 105.931 246.675 100.867 246.675 94.0801C246.675 89.6948 244.691 85.0485 236.86 83.2735L229.708 81.6551Z" fill="#3D54B4"/>
</svg>
