<svg width="210" height="90" viewBox="0 0 210 90" fill="none" xmlns="http://www.w3.org/2000/svg">
<path fill-rule="evenodd" clip-rule="evenodd" d="M38.0887 19.5086C41.0189 19.5086 42.1785 20.8275 42.1785 23.3004V38.1929C42.1785 39.8415 40.7745 41.2153 38.7607 41.2153C35.8916 41.2153 35.0975 39.6217 34.4876 36.1046C31.6186 39.3469 27.651 41.4352 21.4252 41.4352C5.92141 41.4352 0 31.8182 0 20.7176C0 7.3638 9.27809 0 22.8903 0C33.9989 0 39.9203 5.99 39.9203 9.507C39.9203 12.6394 37.3567 13.4637 35.2196 13.4637C33.1644 13.4637 32.2801 12.3906 31.2466 11.1365C29.7942 9.3739 28.0472 7.2539 22.3405 7.2539C15.4427 7.2539 10.0101 11.3205 10.0101 21.3221C10.0101 29.1255 14.2831 34.511 22.4627 34.511C27.7732 34.511 32.4128 31.2687 32.9004 26.4328H26.3692C24.2332 26.4328 21.8529 25.7184 21.8529 22.9707C21.8529 20.7725 23.2558 19.5086 25.7594 19.5086H38.0887ZM65.2165 11.0457C73.7626 11.0457 79.6829 13.5186 79.6829 19.2888V32.7525C79.6829 34.8293 80.0347 35.9148 80.3023 36.7407C80.4667 37.2478 80.5993 37.6571 80.5993 38.1379C80.5993 39.9514 78.7066 41.2153 76.5706 41.2153C72.7252 41.2153 71.4434 39.0172 71.3212 36.5443C67.8412 40.0064 63.8125 41.2153 59.1129 41.2153C54.0468 41.2153 49.0418 38.083 49.0418 33.0272C49.0418 26.3778 54.6566 24.5094 61.4933 23.795L66.926 23.2455C69.0619 23.0256 70.7714 22.586 70.7714 20.2779C70.7714 17.9699 68.1467 16.9807 65.1554 16.9807C61.3512 16.9807 59.6817 18.4447 58.2694 19.683C57.2344 20.5906 56.3375 21.377 54.8399 21.377C52.5817 21.377 51.0556 19.9482 51.0556 18.2996C51.0556 15.1123 56.0606 11.0457 65.2165 11.0457ZM62.8973 35.9398C67.7801 35.9398 70.7714 33.0822 70.7714 30.1147V26.9823C69.8171 27.7879 68.046 28.0687 66.9977 28.2348L66.926 28.2462L63.6903 28.6859C59.9671 29.1805 57.9533 30.2246 57.9533 32.6425C57.9533 34.456 59.8449 35.9398 62.8973 35.9398ZM87.3948 37.2037C87.3948 39.3469 88.3712 41.2153 91.8501 41.2153C95.33 41.2153 96.3064 39.3469 96.3064 37.2037V23.8499C96.3064 20.1131 99.3587 17.6402 102.776 17.6402C106.255 17.6402 107.659 19.9482 107.659 22.8058V37.2037C107.659 39.3469 108.637 41.2153 112.116 41.2153C115.595 41.2153 116.571 39.3469 116.571 37.2037V23.8499C116.571 20.1131 119.623 17.6402 123.042 17.6402C126.521 17.6402 127.925 19.9482 127.925 22.8058V37.2037C127.925 39.3469 128.901 41.2153 132.381 41.2153C135.86 41.2153 136.837 39.3469 136.837 37.2037V20.7725C136.837 13.5736 131.893 11.0457 125.728 11.0457C120.905 11.0457 117.732 12.9691 115.229 16.1015C113.581 12.3097 109.735 11.0457 106.683 11.0457C102.166 11.0457 98.2591 12.9141 95.9398 16.1015H95.8176V15.0573C95.8176 12.6394 94.2304 11.0457 91.6057 11.0457C88.981 11.0457 87.3948 12.6394 87.3948 15.0573V37.2037ZM148.848 41.2153C145.369 41.2153 144.392 39.3469 144.392 37.2037V15.0573C144.392 12.9141 145.369 11.0457 148.848 11.0457C152.327 11.0457 153.304 12.9141 153.304 15.0573V37.2037C153.304 39.3469 152.327 41.2153 148.848 41.2153ZM148.848 8.353C146.285 8.353 144.21 6.4845 144.21 4.1765C144.21 1.8684 146.285 0 148.848 0C151.412 0 153.488 1.8684 153.488 4.1765C153.488 6.4845 151.412 8.353 148.848 8.353ZM163.7 37.2037C163.7 39.8415 165.471 41.2153 168.156 41.2153C170.842 41.2153 172.613 39.8415 172.613 37.2037V17.0357H175.36C177.984 17.0357 179.388 16.3213 179.388 14.3979C179.388 12.4745 177.984 11.7601 175.36 11.7601H172.613V8.298C172.613 7.1989 173.284 6.4296 174.565 6.4296C174.901 6.4296 175.222 6.47082 175.542 6.51205C175.863 6.55327 176.183 6.5945 176.519 6.5945C178.106 6.5945 179.388 5.3305 179.388 3.8468C179.388 1.154 176.764 0 173.528 0C168.34 0 163.7 2.6927 163.7 7.7485V11.7601H161.686C159.184 11.7601 158.146 12.6394 158.146 14.3979C158.146 16.1564 159.184 17.0357 161.686 17.0357H163.7V37.2037ZM185.011 11.0457C187.391 11.0457 189.04 12.2547 189.588 14.0682L195.326 32.8074H195.449L200.881 14.6177C201.491 12.5844 202.712 11.0457 205.153 11.0457C208.694 11.0457 209.732 13.6835 209.732 14.6727C209.732 15.3321 209.487 16.1564 209.061 17.2005L198.744 43.5234C196.608 49.0188 194.167 51.8764 188.551 51.8764C184.583 51.8764 182.935 50.1179 182.935 48.1945C182.935 46.0513 184.644 44.9522 187.025 44.9522H187.94C189.101 44.9522 190.382 44.8972 191.053 42.4243L181.775 18.6293C181.721 18.4864 181.668 18.3492 181.618 18.2173L181.615 18.2088L181.608 18.1913C180.987 16.5663 180.677 15.7527 180.677 14.8925C180.677 12.6943 182.63 11.0457 185.011 11.0457ZM65.2643 74.9478C65.2643 85.285 72.3386 89.931 83.4139 89.931C94.4903 89.931 101.565 85.285 101.565 74.9478V55.0572C101.565 52.4991 99.7086 50.7763 96.8095 50.7763C93.9094 50.7763 92.0544 52.4991 92.0544 55.0572V75.6264C92.0544 80.7426 88.8655 83.0397 83.4139 83.0397C77.9635 83.0397 74.7734 80.7426 74.7734 75.6264V55.0572C74.7734 52.4991 72.9184 50.7763 70.0194 50.7763C67.1192 50.7763 65.2643 52.4991 65.2643 55.0572V74.9478ZM117.819 61.583C117.819 64.1933 121.298 65.0286 124.314 65.6551L132.258 67.2735C140.956 69.0485 143.16 73.6948 143.16 78.0801C143.16 84.867 137.477 89.931 125.996 89.931C113.934 89.931 108.541 84.501 108.541 80.4294C108.541 78.3412 110.223 76.8794 112.542 76.8794C114.724 76.8794 115.745 78.0922 116.924 79.4924C118.535 81.4045 120.439 83.6662 125.996 83.6662C130.925 83.6662 133.65 81.2125 133.65 78.7066C133.65 77.1926 132.838 75.522 129.591 74.7911L118.863 72.3375C110.223 70.3536 108.658 66.0727 108.658 62.0528C108.658 53.6999 117.24 50.5675 125.3 50.5675C132.722 50.5675 141.478 54.3263 141.478 59.3381C141.478 61.4786 139.449 62.7315 137.13 62.7315C135.308 62.7315 134.378 61.7768 133.286 60.6567C131.738 59.0675 129.866 57.1455 124.662 57.1455C120.255 57.1455 117.819 58.9727 117.819 61.583Z" fill="#3D54B4"/>
</svg>
